<svg width="2767" height="2245" viewBox="0 0 2767 2245" fill="none" xmlns="http://www.w3.org/2000/svg">
<path d="M1247.91 573.895C1345.28 525.581 1412.22 425.118 1412.22 309.017C1412.22 145.821 1279.97 13.5233 1116.83 13.5233C953.687 13.5233 821.436 145.821 821.436 309.017C821.436 379.823 846.33 444.812 887.842 495.703C1020.2 444.337 1119.59 460.907 1247.91 573.895Z" fill="url(#paint0_linear_199_2)"/>
<path d="M1987.69 471.211C2018.31 424.651 2036.13 368.916 2036.13 309.017C2036.13 145.821 1903.88 13.5233 1740.74 13.5233C1577.6 13.5233 1445.35 145.821 1445.35 309.017C1445.35 452.962 1548.24 572.868 1684.46 599.155C1751.78 496.808 1842.88 452.622 1987.69 471.211Z" fill="url(#paint1_linear_199_2)"/>
<path d="M722.052 767.448C722.052 651.347 788.986 550.885 886.358 502.57L891.488 500.086C1028.49 447.099 1125.11 471.954 1242.78 576.379L1246.43 580.763C1287.94 631.654 1312.83 696.643 1312.83 767.448C1312.83 930.645 1180.58 1062.94 1017.44 1062.94C854.303 1062.94 722.052 930.645 722.052 767.448Z" fill="url(#paint2_linear_199_2)"/>
<path d="M2223.24 707.232C2199.19 591.05 2106.96 499.829 1990.27 477.311L1984.32 476.227C1858.78 457.564 1760.06 496.808 1690.4 600.238L1687.03 605.254C1656.41 651.814 1638.59 707.549 1638.59 767.448C1638.59 930.645 1770.85 1062.94 1933.99 1062.94C2097.13 1062.94 2229.38 930.645 2229.38 767.448C2229.38 748.163 2227.53 729.31 2224 711.055L2223.24 707.232Z" fill="url(#paint3_linear_199_2)"/>
<path d="M558.085 637.703C570.912 643.891 586.553 644.586 604.634 636.423L868.266 478.733C835.234 430.414 815.914 371.973 815.914 309.017C815.914 300.614 816.259 292.291 816.934 284.062L563.272 463.342L562.984 463.461C540.485 472.728 526.454 492.123 519.766 515.15C513.069 538.207 513.817 564.69 520.749 587.561C527.697 610.484 540.703 629.318 558.085 637.703Z" fill="url(#paint4_linear_199_2)"/>
<path d="M791.518 966.285C744.842 913.255 716.53 843.659 716.53 767.448C716.53 649.637 784.186 547.633 882.752 498.195C878.829 493.344 875.053 488.368 871.432 483.274L626.959 629.504C620.19 634.492 613.609 638.392 607.244 641.297L605.478 642.354L528.843 803.792L562.197 1049.86C563.037 1056.06 570.172 1059.13 575.243 1055.48L654.995 998.034C683.655 977.392 718.077 966.285 753.393 966.285H791.518Z" fill="url(#paint5_linear_199_2)"/>
<path d="M2153.23 438.375L2335.53 581.426C2380.89 530.638 2362.61 462.499 2318.82 422.912C2296.72 402.932 2268.36 390.51 2238.89 391.433C2210.14 392.334 2179.97 405.955 2153.23 438.375Z" fill="url(#paint6_linear_199_2)"/>
<path d="M1969.25 1391.59L1873.37 1448.21C1841.79 1466.87 1803.99 1471.89 1768.63 1462.13L1503.52 1388.97L1355.1 1452.21L1354.87 1452.26C1328.75 1458.29 1311.67 1473.46 1302.62 1492.11C1293.54 1510.84 1292.48 1533.24 1298.79 1553.7C1305.1 1574.14 1318.72 1592.5 1338.84 1603.25C1358.93 1613.99 1385.75 1617.28 1418.75 1607.11L1418.81 1607.08L1418.88 1607.07L1690.49 1538.44L1924.19 1479.39C1941.67 1474.98 1955.07 1460.94 1958.68 1443.28L1969.25 1391.59Z" fill="url(#paint7_linear_199_2)"/>
<path d="M512.739 1374.65L528.167 1274.12L773.403 1388.59L930.735 1452.09C968.137 1470.48 989.244 1494.99 997.706 1519.76C1006.17 1544.55 1002.09 1569.89 988.572 1590.27C961.622 1630.87 896.436 1652.37 817.332 1607.37L539.199 1432.56C519.629 1420.26 509.232 1397.5 512.739 1374.65Z" fill="url(#paint8_linear_199_2)"/>
<path d="M1925.54 1484.75L1713.04 1538.44H2455.21L2456.16 1486.15L2444.59 1135.5L2435.04 902.525L2414.28 1019.37L2414.24 1019.5C2407.11 1045.09 2391.35 1061.25 2371.92 1069.34C2352.59 1077.38 2329.83 1077.34 2308.65 1071C2266.39 1058.36 2229.11 1020.12 2237.7 968.593L2237.71 968.534L2274.57 794.009C2277.26 781.256 2273.79 767.978 2265.21 758.168L2231.04 719.096C2233.58 734.838 2234.9 750.988 2234.9 767.448C2234.9 933.695 2100.18 1068.47 1933.99 1068.47C1927.38 1068.47 1920.83 1068.25 1914.33 1067.83L1915.95 1070.91L1869.29 1095.57C1853.91 1103.71 1844.28 1119.68 1844.28 1137.08V1199.46L2131.51 1066C2178.51 1040.4 2226.22 1060.38 2249.98 1096.88C2273.83 1133.52 2273.67 1186.85 2225.65 1227.98L2225.5 1228.1L1975.67 1387.75L1964.09 1444.39C1960.05 1464.13 1945.07 1479.81 1925.54 1484.75Z" fill="url(#paint9_linear_199_2)"/>
<path d="M2028.34 397.837C2020.14 424.427 2008.36 449.448 1993.56 472.329C2112.18 496.161 2205.58 589.774 2229.14 708.538L2269.37 754.531C2279.09 765.649 2283.02 780.697 2279.97 795.151L2243.14 969.501L2243.13 969.558C2235.19 1017.42 2269.68 1053.58 2310.23 1065.71C2330.45 1071.76 2351.87 1071.7 2369.8 1064.24C2387.61 1056.83 2402.19 1042.04 2408.89 1018.14L2430.97 893.88L2478.04 719.656C2482.63 702.667 2475.99 684.631 2461.48 674.68L2334.21 587.408L2148.36 441.576L2026.44 404.259L2028.34 397.837Z" fill="url(#paint10_linear_199_2)"/>
<path d="M933.079 1447.09C971.54 1465.98 993.887 1491.5 1002.93 1517.98C1006.36 1528.02 1007.86 1538.16 1007.61 1548.07L1291 1545.26C1287.36 1526.46 1289.39 1506.74 1297.65 1489.7C1307.41 1469.58 1325.8 1453.37 1353.39 1446.93L1503.13 1383.13L1770.1 1456.81C1804.01 1466.17 1840.27 1461.35 1870.57 1443.46L1971.71 1383.73L1971.8 1383.67L2222.21 1223.66C2267.9 1184.42 2267.72 1134.26 2245.35 1099.89C2222.88 1065.37 2178.15 1046.84 2134.08 1070.89L2134 1070.93L1842.77 1206.25C1817.37 1220.22 1786.22 1218.43 1762.58 1201.65L1463.07 988.943L1463.07 988.94C1447.37 977.795 1428.6 971.808 1409.36 971.808L1239.52 970.579C1184.5 1030.74 1105.38 1068.47 1017.44 1068.47C930.112 1068.47 851.471 1031.25 796.501 971.808H753.393C719.235 971.808 685.942 982.551 658.222 1002.52L578.47 1059.96C570.017 1066.05 558.126 1060.93 556.726 1050.61L515.001 742.78V742.593C515.001 683.718 479.977 648.335 440.296 640.843C400.752 633.376 355.952 653.484 335.594 707.099L370.951 1196.83C371.176 1199.94 373.126 1202.66 375.997 1203.87L527.117 1267.54L775.606 1383.52L932.895 1447.01L932.989 1447.05L933.079 1447.09Z" fill="url(#paint11_linear_199_2)"/>
<path d="M1349.59 499.81C1322.89 532.366 1289.5 559.22 1251.52 578.27C1293.32 629.963 1318.36 695.78 1318.36 767.448C1318.36 842.743 1290.72 911.581 1245.04 964.366L1409.36 966.285C1428.31 966.285 1446.82 971.763 1462.69 982.013L1481.39 875.166C1485.01 854.541 1495.21 835.646 1510.48 821.325L1530.59 802.474L1473.4 594.254C1466.38 568.691 1448.58 547.452 1424.64 536.078L1349.59 499.81Z" fill="url(#paint12_linear_199_2)"/>
<path d="M1417.74 309.017C1417.74 378.847 1393.97 443.122 1354.09 494.19L1427.01 531.089C1452.4 543.153 1471.28 565.678 1478.73 592.791L1536.29 802.409L1690.49 1143.68L1765.78 1197.14C1787.27 1212.41 1815.47 1214.29 1838.76 1202.13V1137.08C1838.76 1117.63 1849.52 1099.78 1866.71 1090.69L1910.47 1067.56C1755.27 1055.56 1633.07 925.777 1633.07 767.448C1633.07 707.249 1650.74 651.177 1681.17 604.137C1543.51 576.482 1439.83 454.862 1439.83 309.017C1439.83 294.17 1440.9 279.574 1442.98 265.303L1411.63 248.367C1415.64 267.958 1417.74 288.242 1417.74 309.017Z" fill="url(#paint13_linear_199_2)"/>
<path d="M1417.74 309.017C1417.74 426.829 1350.08 528.833 1251.52 578.27M1417.74 309.017C1417.74 288.242 1415.64 267.958 1411.63 248.367M1417.74 309.017C1417.74 378.847 1393.97 443.122 1354.09 494.19M1251.52 578.27C1293.32 629.963 1318.36 695.78 1318.36 767.448M1251.52 578.27C1289.5 559.22 1322.89 532.366 1349.59 499.81M1411.63 248.367L1442.98 265.303M1411.63 248.367L1410.25 242.109L1443.98 258.915L1442.98 265.303M1411.63 248.367C1383.04 111.89 1261.75 8 1116.83 8C959.409 8 830.223 128.92 817.025 282.974L814.321 279.146L560.591 458.474C536.33 468.584 521.465 489.507 514.464 513.609C507.444 537.778 508.249 565.356 515.465 589.163C522.665 612.917 536.403 633.376 555.687 642.678C568.047 648.641 582.368 649.875 598.198 644.812L527.485 793.776L520.522 742.406C520.448 681.153 483.726 643.422 441.32 635.415C398.873 627.4 351.365 649.294 330.212 705.722L330 706.288L365.444 1197.23C365.819 1202.41 369.068 1206.94 373.854 1208.96L522.942 1271.77L507.282 1373.81C503.441 1398.84 514.828 1423.76 536.261 1437.23L814.446 1612.08L814.497 1612.12L814.549 1612.14C895.54 1658.24 964.223 1636.94 993.172 1593.32C1002.13 1579.83 1007.21 1564.27 1007.61 1548.07M1442.98 265.303C1440.9 279.574 1439.83 294.17 1439.83 309.017M1017.44 1068.47C930.112 1068.47 851.471 1031.25 796.501 971.808H753.393C719.235 971.808 685.942 982.551 658.222 1002.52L578.47 1059.96C570.017 1066.05 558.126 1060.93 556.726 1050.61L515.001 742.78V742.593C515.001 683.718 479.977 648.335 440.296 640.842C400.752 633.376 355.952 653.484 335.594 707.099L370.951 1196.83C371.176 1199.94 373.126 1202.66 375.997 1203.87L527.117 1267.54L775.606 1383.52L932.895 1447.01L932.989 1447.05L933.079 1447.09C971.54 1465.98 993.887 1491.5 1002.93 1517.98C1006.36 1528.02 1007.86 1538.16 1007.61 1548.07M1017.44 1068.47C1183.63 1068.47 1318.36 933.695 1318.36 767.448M1017.44 1068.47C1105.38 1068.47 1184.5 1030.74 1239.52 970.579M1318.36 767.448C1318.36 842.743 1290.72 911.581 1245.04 964.366M1993.56 472.329C2023.99 425.289 2041.65 369.217 2041.65 309.017C2041.65 142.77 1906.93 8 1740.74 8C1574.55 8 1439.83 142.77 1439.83 309.017M1993.56 472.329C2112.18 496.161 2205.58 589.774 2229.14 708.538L2269.37 754.531C2279.09 765.649 2283.02 780.697 2279.97 795.151L2243.14 969.501L2243.13 969.558C2235.19 1017.42 2269.68 1053.58 2310.23 1065.71C2330.45 1071.76 2351.87 1071.7 2369.8 1064.24C2387.61 1056.83 2402.19 1042.04 2408.89 1018.14L2430.97 893.88L2478.04 719.656C2482.63 702.667 2475.99 684.631 2461.48 674.68L2334.21 587.408L2148.36 441.576L2026.44 404.259L2028.34 397.837M1993.56 472.329C2008.36 449.448 2020.14 424.427 2028.34 397.837M1439.83 309.017C1439.83 454.862 1543.51 576.482 1681.17 604.137C1650.74 651.177 1633.07 707.249 1633.07 767.448C1633.07 925.777 1755.27 1055.56 1910.47 1067.56L1866.71 1090.69C1849.52 1099.78 1838.76 1117.63 1838.76 1137.08V1202.13C1815.47 1214.29 1787.27 1212.41 1765.78 1197.14L1690.49 1143.68L1536.29 802.409L1478.73 592.791C1471.28 565.678 1452.4 543.153 1427.01 531.089L1354.09 494.19M1354.09 494.19L1349.59 499.81M1349.59 499.81L1424.64 536.078C1448.58 547.452 1466.38 568.691 1473.4 594.254L1530.59 802.474L1510.48 821.325C1495.21 835.646 1485.01 854.541 1481.39 875.166L1462.69 982.013C1446.82 971.762 1428.31 966.285 1409.36 966.285L1245.04 964.366M1245.04 964.366L1239.52 970.579M1239.52 970.579L1409.36 971.808C1428.6 971.808 1447.37 977.795 1463.07 988.94L1463.07 988.943L1762.58 1201.65C1786.22 1218.43 1817.37 1220.22 1842.77 1206.25L2134 1070.93L2134.08 1070.89C2178.15 1046.84 2222.88 1065.37 2245.35 1099.89C2267.72 1134.26 2267.9 1184.42 2222.21 1223.65L1971.8 1383.67L1971.71 1383.73L1870.57 1443.46C1840.27 1461.35 1804.01 1466.17 1770.1 1456.81L1503.13 1383.13L1353.39 1446.93C1325.8 1453.37 1307.41 1469.58 1297.65 1489.7C1289.39 1506.74 1287.36 1526.46 1291 1545.26M2458.97 1486.24L2456.16 1486.15M2458.97 1486.24L2461.78 1538.44H2455.21M2458.97 1486.24L2444.59 1135.5M2456.16 1486.15L2455.21 1538.44M2456.16 1486.15L2444.59 1135.5M2028.34 397.837L2148 436.052C2175.84 401.729 2207.81 386.881 2238.72 385.913C2269.86 384.937 2299.57 398.061 2322.53 418.815C2367.64 459.605 2387.59 530.979 2340.01 584.694L2464.6 670.125C2481.05 681.402 2488.57 701.843 2483.37 721.097L2436.63 894.11L2444.59 1135.5M1984.32 476.227L1987.69 471.211M1984.32 476.227C1858.78 457.564 1760.06 496.808 1690.4 600.238M1984.32 476.227L1990.27 477.311C2106.96 499.829 2199.19 591.05 2223.24 707.232L2224 711.055C2227.53 729.31 2229.38 748.163 2229.38 767.448C2229.38 930.645 2097.13 1062.94 1933.99 1062.94C1770.85 1062.94 1638.59 930.645 1638.59 767.448C1638.59 707.549 1656.41 651.814 1687.03 605.254L1690.4 600.238M1987.69 471.211C2018.31 424.651 2036.13 368.916 2036.13 309.017C2036.13 145.821 1903.88 13.5233 1740.74 13.5233C1577.6 13.5233 1445.35 145.821 1445.35 309.017C1445.35 452.962 1548.24 572.868 1684.46 599.155M1987.69 471.211C1842.88 452.622 1751.78 496.808 1684.46 599.155M1684.46 599.155L1690.4 600.238M1007.61 1548.07L1291 1545.26M1291 1545.26C1291.65 1548.65 1292.49 1552.01 1293.52 1555.33C1300.2 1577 1314.7 1596.61 1336.24 1608.12C1357.81 1619.65 1386.16 1622.92 1420.31 1612.4L1713.04 1538.44M1690.49 1538.44L1418.88 1607.07L1418.81 1607.08L1418.75 1607.11C1385.75 1617.28 1358.93 1613.99 1338.84 1603.25C1318.72 1592.5 1305.1 1574.14 1298.79 1553.7C1292.48 1533.24 1293.54 1510.84 1302.62 1492.11C1311.67 1473.46 1328.75 1458.29 1354.87 1452.26L1355.1 1452.21L1503.52 1388.97L1768.63 1462.13C1803.99 1471.89 1841.79 1466.87 1873.37 1448.21L1969.25 1391.59L1958.68 1443.28C1955.07 1460.94 1941.67 1474.98 1924.19 1479.39L1690.49 1538.44ZM1690.49 1538.44H1713.04M2455.21 1538.44H1713.04M1713.04 1538.44L1925.54 1484.75C1945.07 1479.81 1960.05 1464.13 1964.09 1444.39L1975.67 1387.75L2225.5 1228.1L2225.65 1227.98C2273.67 1186.85 2273.83 1133.52 2249.98 1096.88C2226.22 1060.38 2178.51 1040.4 2131.51 1066L1844.28 1199.46V1137.08C1844.28 1119.68 1853.91 1103.71 1869.29 1095.57L1915.95 1070.91L1914.33 1067.83C1920.83 1068.25 1927.38 1068.47 1933.99 1068.47C2100.18 1068.47 2234.9 933.695 2234.9 767.448C2234.9 750.988 2233.58 734.838 2231.04 719.096L2265.21 758.168C2273.79 767.978 2277.26 781.256 2274.57 794.009L2237.71 968.534L2237.7 968.593C2229.11 1020.12 2266.39 1058.36 2308.65 1071C2329.83 1077.34 2352.59 1077.38 2371.92 1069.34C2391.35 1061.25 2407.11 1045.09 2414.24 1019.5L2414.28 1019.37L2435.04 902.525L2444.59 1135.5M791.518 966.285C744.842 913.255 716.53 843.659 716.53 767.448C716.53 649.637 784.186 547.633 882.752 498.195C878.829 493.344 875.053 488.368 871.432 483.274L626.959 629.504C620.19 634.492 613.609 638.392 607.244 641.297L605.478 642.354L528.843 803.792L562.197 1049.86C563.037 1056.06 570.172 1059.13 575.244 1055.48L654.995 998.034C683.655 977.392 718.077 966.285 753.393 966.285H791.518ZM868.266 478.733C835.234 430.414 815.914 371.973 815.914 309.017C815.914 300.614 816.259 292.291 816.934 284.062L563.272 463.342L562.984 463.461C540.485 472.728 526.454 492.123 519.766 515.15C513.069 538.207 513.817 564.69 520.749 587.561C527.697 610.484 540.703 629.318 558.085 637.703C570.912 643.891 586.553 644.586 604.634 636.423L868.266 478.733ZM1247.91 573.895C1345.28 525.581 1412.22 425.118 1412.22 309.017C1412.22 145.821 1279.97 13.5233 1116.83 13.5233C953.687 13.5233 821.436 145.821 821.436 309.017C821.436 379.823 846.33 444.812 887.842 495.703C1020.2 444.337 1119.59 460.907 1247.91 573.895ZM1242.78 576.379L1246.43 580.763C1287.94 631.654 1312.83 696.643 1312.83 767.448C1312.83 930.645 1180.58 1062.94 1017.44 1062.94C854.303 1062.94 722.052 930.645 722.052 767.448C722.052 651.347 788.986 550.885 886.358 502.57L891.488 500.086C1028.49 447.099 1125.11 471.954 1242.78 576.379ZM528.167 1274.12L512.739 1374.65C509.232 1397.5 519.629 1420.26 539.199 1432.56L817.332 1607.37C896.436 1652.37 961.622 1630.87 988.572 1590.27C1002.09 1569.89 1006.17 1544.55 997.706 1519.76C989.244 1494.99 968.137 1470.48 930.735 1452.09L773.403 1388.59L528.167 1274.12ZM2153.23 438.375L2335.53 581.426C2380.89 530.638 2362.61 462.499 2318.82 422.912C2296.72 402.932 2268.36 390.51 2238.89 391.433C2210.14 392.334 2179.97 405.955 2153.23 438.375ZM1532.76 808.003L1514.26 825.354C1499.86 838.857 1490.24 856.672 1486.83 876.118L1467.69 985.45L1681.57 1137.34L1532.76 808.003Z" stroke="white" stroke-width="15"/>
<path d="M62.06 2015.4C40.8467 2015.4 25.3067 2010.71 15.44 2001.34C5.57333 1991.97 0.639998 1982.35 0.639998 1972.48C0.639998 1965.08 3.10666 1959.65 8.04 1956.2C12.48 1952.25 17.9067 1950.28 24.32 1950.28C30.7333 1950.28 35.1733 1951.76 37.64 1954.72C40.1067 1957.19 41.34 1960.15 41.34 1963.6C41.34 1968.53 39.3667 1971.99 35.42 1973.96C31.4733 1975.93 27.5267 1976.92 23.58 1976.92C20.1267 1976.92 17.66 1976.67 16.18 1976.18C14.2067 1975.69 12.7267 1975.19 11.74 1974.7C11.74 1983.58 16.18 1991.47 25.06 1998.38C33.4467 2004.79 44.7933 2008 59.1 2008C79.3267 2008 99.8 2001.34 120.52 1988.02C141.24 1974.21 161.22 1957.43 180.46 1937.7C200.193 1917.47 218.94 1897 236.7 1876.28C254.46 1855.56 270.493 1838.05 284.8 1823.74C305.027 1803.51 325.993 1782.3 347.7 1760.1C369.407 1737.9 392.1 1716.69 415.78 1696.46C439.953 1676.23 465.113 1658.97 491.26 1644.66C517.407 1629.86 544.787 1620.24 573.4 1615.8C580.307 1614.81 584.253 1615.31 585.24 1617.28C586.72 1618.76 585.487 1619.99 581.54 1620.98C554.407 1625.91 529 1635.04 505.32 1648.36C482.133 1661.19 459.193 1678.21 436.5 1699.42C414.3 1720.14 391.113 1745.05 366.94 1774.16C343.26 1802.77 317.36 1835.33 289.24 1871.84C276.907 1888.12 262.6 1904.65 246.32 1921.42C230.04 1938.19 212.033 1953.73 192.3 1968.04C172.567 1982.35 151.847 1993.94 130.14 2002.82C108.433 2011.21 85.74 2015.4 62.06 2015.4ZM298.86 2015.4C261.367 2015.4 242.62 2005.04 242.62 1984.32C242.62 1971.99 247.553 1959.9 257.42 1948.06C267.287 1935.73 279.867 1924.38 295.16 1914.02C310.947 1903.66 327.227 1895.52 344 1889.6C360.773 1883.68 376.067 1880.97 389.88 1881.46C392.84 1881.46 394.813 1882.69 395.8 1885.16C396.787 1887.13 394.813 1888.12 389.88 1888.12C377.053 1888.12 362.747 1891.08 346.96 1897C331.173 1902.43 315.88 1909.83 301.08 1919.2C286.773 1928.57 274.933 1938.93 265.56 1950.28C256.187 1961.63 251.5 1972.97 251.5 1984.32C251.5 1992.71 255.2 1998.63 262.6 2002.08C270 2005.53 278.88 2007.26 289.24 2007.26C304.04 2007.26 319.087 2003.31 334.38 1995.42C349.673 1987.53 363.733 1976.67 376.56 1962.86C389.88 1949.05 400.487 1933.26 408.38 1915.5C416.273 1897.74 420.22 1879.24 420.22 1860C420.22 1848.65 417.013 1839.53 410.6 1832.62C404.68 1825.71 396.047 1822.26 384.7 1822.26C373.353 1822.26 364.227 1823.25 357.32 1825.22C350.413 1827.19 346.96 1829.41 346.96 1831.88C346.96 1834.35 348.193 1836.07 350.66 1837.06C353.62 1838.05 358.8 1838.54 366.2 1838.54C380.507 1838.54 395.8 1834.59 412.08 1826.7C428.853 1818.81 444.64 1807.95 459.44 1794.14C474.733 1780.33 487.067 1764.79 496.44 1747.52C506.307 1730.25 511.24 1712.25 511.24 1693.5C511.24 1681.17 507.787 1668.83 500.88 1656.5C493.973 1643.67 481.393 1633.07 463.14 1624.68C444.887 1615.8 418.493 1611.36 383.96 1611.36C355.347 1611.36 327.72 1616.29 301.08 1626.16C274.933 1635.53 250.513 1647.87 227.82 1663.16C205.62 1678.45 185.887 1694.73 168.62 1712C151.847 1729.27 138.773 1746.04 129.4 1762.32C120.027 1778.11 115.34 1791.43 115.34 1802.28C115.34 1810.67 118.3 1818.81 124.22 1826.7C130.14 1834.1 141.487 1837.8 158.26 1837.8C174.54 1837.8 192.3 1832.87 211.54 1823C231.273 1812.64 250.02 1799.07 267.78 1782.3C286.033 1765.03 301.327 1745.55 313.66 1723.84C326.487 1701.64 334.133 1678.7 336.6 1655.02C337.587 1649.1 339.067 1646.39 341.04 1646.88C343.013 1647.37 344.247 1649.84 344.74 1654.28C346.22 1676.97 341.533 1699.67 330.68 1722.36C320.32 1744.56 306.013 1765.03 287.76 1783.78C269.507 1802.03 249.28 1816.59 227.08 1827.44C204.88 1838.29 182.927 1843.72 161.22 1843.72C142.473 1843.72 128.66 1840.27 119.78 1833.36C111.393 1826.45 107.2 1814.61 107.2 1797.84C107.2 1779.09 114.6 1758.62 129.4 1736.42C144.2 1714.22 164.427 1693.25 190.08 1673.52C216.227 1653.29 245.827 1637.01 278.88 1624.68C312.427 1611.85 347.947 1605.44 385.44 1605.44C423.427 1605.44 453.52 1610.13 475.72 1619.5C498.413 1628.87 514.693 1641.21 524.56 1656.5C534.92 1671.79 540.1 1688.57 540.1 1706.82C540.1 1726.55 533.933 1745.05 521.6 1762.32C509.76 1779.09 494.467 1793.89 475.72 1806.72C457.467 1819.55 438.72 1829.66 419.48 1837.06C400.733 1843.97 384.7 1847.42 371.38 1847.42C357.073 1847.42 346.96 1846.19 341.04 1843.72C335.613 1841.25 332.9 1838.05 332.9 1834.1C332.9 1829.17 337.833 1824.97 347.7 1821.52C358.06 1818.07 370.147 1816.34 383.96 1816.34C394.32 1816.34 404.68 1818.56 415.04 1823C425.4 1827.44 433.787 1835.33 440.2 1846.68C447.107 1858.03 450.56 1873.81 450.56 1894.04C450.56 1908.84 445.873 1923.64 436.5 1938.44C427.62 1952.75 415.78 1965.82 400.98 1977.66C386.18 1989.01 369.9 1998.13 352.14 2005.04C334.38 2011.95 316.62 2015.4 298.86 2015.4Z" fill="black"/>
<path d="M2015.44 2074.62C2004.59 2074.62 1993.73 2073.14 1982.88 2070.18C1971.53 2067.22 1962.16 2062.04 1954.76 2054.64C1947.36 2047.24 1943.66 2036.88 1943.66 2023.56C1943.66 2014.68 1946.62 2008.02 1952.54 2003.58C1957.97 1999.63 1962.65 1997.66 1966.6 1997.66C1972.03 1997.66 1976.22 1998.89 1979.18 2001.36C1981.65 2004.32 1982.88 2007.28 1982.88 2010.24C1982.88 2014.19 1981.65 2017.64 1979.18 2020.6C1976.22 2024.05 1972.27 2025.78 1967.34 2025.78C1963.39 2025.78 1960.43 2025.53 1958.46 2025.04C1955.99 2024.55 1954.76 2024.3 1954.76 2024.3C1954.27 2026.27 1955.01 2030.71 1956.98 2037.62C1958.95 2044.53 1964.38 2050.94 1973.26 2056.86C1982.14 2063.27 1996.45 2066.48 2016.18 2066.48C2040.85 2066.48 2064.77 2059.33 2087.96 2045.02C2111.64 2030.71 2134.09 2012.21 2155.3 1989.52C2177.01 1966.83 2197.48 1942.16 2216.72 1915.52C2235.96 1888.88 2253.72 1862.98 2270 1837.82C2286.77 1812.17 2301.82 1789.97 2315.14 1771.22C2328.95 1751.98 2340.79 1738.91 2350.66 1732C2356.09 1728.05 2359.79 1726.57 2361.76 1727.56C2364.23 1728.05 2362.01 1731.26 2355.1 1737.18C2352.63 1739.65 2345.97 1746.8 2335.12 1758.64C2324.27 1769.99 2310.95 1783.55 2295.16 1799.34C2279.37 1815.13 2262.35 1830.67 2244.1 1845.96C2226.34 1861.25 2208.83 1874.08 2191.56 1884.44C2174.29 1894.8 2159 1899.98 2145.68 1899.98C2133.84 1899.98 2125.7 1897.02 2121.26 1891.1C2116.82 1884.69 2114.6 1876.79 2114.6 1867.42C2114.6 1851.14 2119.78 1833.87 2130.14 1815.62C2140.99 1797.37 2154.31 1779.36 2170.1 1761.6C2185.89 1743.35 2201.43 1726.33 2216.72 1710.54C2232.51 1694.26 2245.58 1679.95 2255.94 1667.62C2266.79 1655.29 2272.22 1645.91 2272.22 1639.5C2272.22 1631.11 2267.53 1623.96 2258.16 1618.04C2249.28 1611.63 2234.48 1608.42 2213.76 1608.42C2190.08 1608.42 2166.65 1613.6 2143.46 1623.96C2120.27 1634.32 2099.06 1647.39 2079.82 1663.18C2061.07 1678.97 2046.03 1695.25 2034.68 1712.02C2023.33 1728.3 2017.66 1742.61 2017.66 1754.94C2017.66 1761.85 2019.63 1767.52 2023.58 1771.96C2027.53 1776.4 2034.43 1778.62 2044.3 1778.62C2055.65 1778.62 2067.98 1774.67 2081.3 1766.78C2095.11 1758.39 2108.43 1748.03 2121.26 1735.7C2134.58 1723.37 2146.67 1710.54 2157.52 1697.22C2168.37 1683.9 2177.25 1672.06 2184.16 1661.7C2191.07 1651.34 2195.01 1644.19 2196 1640.24C2196.99 1635.8 2197.97 1633.83 2198.96 1634.32C2200.44 1634.81 2201.43 1637.03 2201.92 1640.98C2203.89 1650.35 2201.67 1661.45 2195.26 1674.28C2188.85 1687.11 2179.72 1700.43 2167.88 1714.24C2156.04 1727.56 2142.72 1740.14 2127.92 1751.98C2113.61 1763.33 2099.06 1772.7 2084.26 1780.1C2069.95 1787.01 2056.88 1790.46 2045.04 1790.46C2030.24 1790.46 2020.37 1787.25 2015.44 1780.84C2011 1774.43 2008.78 1766.78 2008.78 1757.9C2008.78 1744.09 2014.45 1728.3 2025.8 1710.54C2037.15 1692.78 2052.44 1675.51 2071.68 1658.74C2091.41 1641.97 2113.61 1628.15 2138.28 1617.3C2163.44 1606.45 2189.34 1601.02 2215.98 1601.02C2241.63 1601.02 2259.89 1605.21 2270.74 1613.6C2281.59 1621.49 2287.02 1631.11 2287.02 1642.46C2287.02 1660.22 2281.59 1677.73 2270.74 1695C2259.89 1711.77 2246.57 1728.3 2230.78 1744.58C2214.99 1760.86 2198.96 1776.65 2182.68 1791.94C2166.89 1807.23 2153.57 1821.79 2142.72 1835.6C2131.87 1848.92 2126.44 1861.5 2126.44 1873.34C2126.44 1878.27 2127.92 1882.96 2130.88 1887.4C2133.84 1891.35 2138.28 1893.32 2144.2 1893.32C2154.07 1893.32 2166.4 1889.13 2181.2 1880.74C2196 1872.35 2211.54 1861.5 2227.82 1848.18C2244.59 1834.86 2260.87 1820.8 2276.66 1806C2292.45 1790.71 2306.26 1776.15 2318.1 1762.34C2335.86 1741.62 2352.88 1722.87 2369.16 1706.1C2385.93 1688.83 2401.47 1674.77 2415.78 1663.92C2430.58 1653.07 2444.15 1646.16 2456.48 1643.2C2461.41 1642.21 2464.13 1642.71 2464.62 1644.68C2465.11 1646.65 2463.63 1648.38 2460.18 1649.86C2431.57 1662.69 2407.39 1681.19 2387.66 1705.36C2367.93 1729.53 2349.43 1756.67 2332.16 1786.76C2315.39 1816.85 2297.13 1847.44 2277.4 1878.52C2262.11 1902.2 2245.09 1925.88 2226.34 1949.56C2207.59 1972.75 2187.12 1993.71 2164.92 2012.46C2143.21 2031.21 2119.78 2046.25 2094.62 2057.6C2069.46 2068.95 2043.07 2074.62 2015.44 2074.62Z" fill="black"/>
<path d="M2420.48 1996.76C2400.8 1996.76 2383.28 1992.2 2367.92 1983.08C2352.72 1973.8 2340.72 1961.32 2331.92 1945.64C2323.28 1929.96 2318.96 1912.44 2318.96 1893.08C2318.96 1873.72 2323.28 1856.12 2331.92 1840.28C2340.72 1824.28 2352.72 1811.64 2367.92 1802.36C2383.28 1792.92 2400.8 1788.2 2420.48 1788.2C2440.16 1788.2 2457.52 1792.92 2472.56 1802.36C2487.76 1811.64 2499.68 1824.28 2508.32 1840.28C2516.96 1856.12 2521.28 1873.72 2521.28 1893.08C2521.28 1912.44 2516.96 1929.96 2508.32 1945.64C2499.68 1961.32 2487.76 1973.8 2472.56 1983.08C2457.52 1992.2 2440.16 1996.76 2420.48 1996.76ZM2420.48 1972.04C2435.36 1972.04 2448.32 1968.6 2459.36 1961.72C2470.56 1954.84 2479.2 1945.4 2485.28 1933.4C2491.52 1921.4 2494.64 1907.96 2494.64 1893.08C2494.64 1878.04 2491.52 1864.52 2485.28 1852.52C2479.2 1840.36 2470.56 1830.76 2459.36 1823.72C2448.32 1816.52 2435.36 1812.92 2420.48 1812.92C2405.44 1812.92 2392.32 1816.52 2381.12 1823.72C2369.92 1830.76 2361.2 1840.36 2354.96 1852.52C2348.72 1864.52 2345.6 1878.04 2345.6 1893.08C2345.6 1907.96 2348.72 1921.4 2354.96 1933.4C2361.2 1945.4 2369.92 1954.84 2381.12 1961.72C2392.32 1968.6 2405.44 1972.04 2420.48 1972.04ZM2581.83 1896.92C2581.83 1919.96 2586.87 1938.28 2596.95 1951.88C2607.19 1965.32 2622.55 1972.04 2643.03 1972.04C2663.67 1972.04 2679.03 1965.32 2689.11 1951.88C2699.19 1938.28 2704.23 1919.96 2704.23 1896.92V1793.96H2731.59V1901.72C2731.59 1920.12 2728.15 1936.52 2721.27 1950.92C2714.39 1965.16 2704.39 1976.36 2691.27 1984.52C2678.15 1992.68 2662.07 1996.76 2643.03 1996.76C2624.15 1996.76 2608.15 1992.68 2595.03 1984.52C2581.91 1976.36 2571.91 1965.16 2565.03 1950.92C2558.15 1936.52 2554.71 1920.12 2554.71 1901.72V1793.96H2581.83V1896.92Z" fill="black"/>
<path d="M512.84 1895.72C513 1909.48 515.72 1922.36 521 1934.36C526.44 1946.36 534.6 1956.04 545.48 1963.4C556.36 1970.76 570.04 1974.44 586.52 1974.44C599.96 1974.44 611.16 1972.28 620.12 1967.96C629.24 1963.48 636.44 1958.36 641.72 1952.6C647.16 1946.68 651 1941.4 653.24 1936.76L670.28 1953.56C664.36 1962.68 657.48 1970.52 649.64 1977.08C641.96 1983.48 632.84 1988.36 622.28 1991.72C611.88 1995.08 599.48 1996.76 585.08 1996.76C564.12 1996.76 546.2 1992.12 531.32 1982.84C516.6 1973.4 505.32 1960.6 497.48 1944.44C489.8 1928.28 485.96 1910.12 485.96 1889.96C485.96 1870.76 489.8 1853.48 497.48 1838.12C505.16 1822.76 516.2 1810.6 530.6 1801.64C545.16 1792.68 562.68 1788.2 583.16 1788.2C601.72 1788.2 617.8 1792.28 631.4 1800.44C645.16 1808.6 655.8 1819.96 663.32 1834.52C671 1848.92 674.84 1865.72 674.84 1884.92C674.84 1886.36 674.76 1888.2 674.6 1890.44C674.6 1892.68 674.52 1894.44 674.36 1895.72H512.84ZM647.48 1872.92C647.32 1864.28 645.16 1855.16 641 1845.56C637 1835.8 630.36 1827.56 621.08 1820.84C611.96 1813.96 599.4 1810.52 583.4 1810.52C566.76 1810.52 553.48 1813.88 543.56 1820.6C533.8 1827.16 526.68 1835.24 522.2 1844.84C517.72 1854.44 515 1863.8 514.04 1872.92H647.48ZM871.063 1991V1949.72C869.943 1954.04 866.183 1959.96 859.783 1967.48C853.543 1975 844.823 1981.8 833.623 1987.88C822.583 1993.8 809.463 1996.76 794.263 1996.76C776.503 1996.76 760.103 1992.68 745.063 1984.52C730.183 1976.2 718.183 1964.28 709.063 1948.76C700.103 1933.08 695.623 1914.36 695.623 1892.6C695.623 1870.84 700.103 1852.2 709.063 1836.68C718.183 1821 730.183 1809 745.063 1800.68C760.103 1792.36 776.503 1788.2 794.263 1788.2C809.463 1788.2 822.583 1791.08 833.623 1796.84C844.663 1802.44 853.383 1808.92 859.783 1816.28C866.343 1823.64 870.023 1829.8 870.823 1834.76V1793.96H897.703V1991H871.063ZM722.743 1892.6C722.743 1909.24 726.343 1923.56 733.543 1935.56C740.743 1947.56 750.023 1956.76 761.383 1963.16C772.903 1969.56 784.983 1972.76 797.623 1972.76C811.543 1972.76 823.943 1969.48 834.823 1962.92C845.703 1956.36 854.263 1947.08 860.503 1935.08C866.903 1923.08 870.103 1908.92 870.103 1892.6C870.103 1876.28 866.903 1862.12 860.503 1850.12C854.263 1838.12 845.703 1828.84 834.823 1822.28C823.943 1815.56 811.543 1812.2 797.623 1812.2C784.983 1812.2 772.903 1815.48 761.383 1822.04C750.023 1828.44 740.743 1837.64 733.543 1849.64C726.343 1861.64 722.743 1875.96 722.743 1892.6ZM969.271 1896.92C969.271 1919.96 974.311 1938.28 984.391 1951.88C994.631 1965.32 1009.99 1972.04 1030.47 1972.04C1051.11 1972.04 1066.47 1965.32 1076.55 1951.88C1086.63 1938.28 1091.67 1919.96 1091.67 1896.92V1793.96H1119.03V1901.72C1119.03 1920.12 1115.59 1936.52 1108.71 1950.92C1101.83 1965.16 1091.83 1976.36 1078.71 1984.52C1065.59 1992.68 1049.51 1996.76 1030.47 1996.76C1011.59 1996.76 995.591 1992.68 982.471 1984.52C969.351 1976.36 959.351 1965.16 952.471 1950.92C945.591 1936.52 942.151 1920.12 942.151 1901.72V1793.96H969.271V1896.92ZM1148.41 1793.96H1189.45V1713.08H1216.57V1793.96H1270.33V1818.68H1216.57V1935.56C1216.57 1948.68 1218.97 1958.04 1223.77 1963.64C1228.57 1969.24 1234.57 1972.04 1241.77 1972.04C1248.65 1972.04 1253.85 1970.84 1257.37 1968.44C1260.89 1966.04 1262.97 1964.44 1263.61 1963.64L1276.33 1984.52C1275.37 1985.32 1273.21 1986.76 1269.85 1988.84C1266.49 1990.76 1262.09 1992.52 1256.65 1994.12C1251.21 1995.88 1244.65 1996.76 1236.97 1996.76C1223.69 1996.76 1212.41 1992.52 1203.13 1984.04C1194.01 1975.4 1189.45 1961.64 1189.45 1942.76V1818.68H1148.41V1793.96ZM1308.21 1991V1793.96H1335.33V1991H1308.21ZM1322.13 1714.04C1316.37 1714.04 1311.41 1712.04 1307.25 1708.04C1303.25 1703.88 1301.25 1698.92 1301.25 1693.16C1301.25 1687.24 1303.33 1682.28 1307.49 1678.28C1311.65 1674.12 1316.53 1672.04 1322.13 1672.04C1325.97 1672.04 1329.49 1673 1332.69 1674.92C1336.05 1676.84 1338.69 1679.4 1340.61 1682.6C1342.69 1685.64 1343.73 1689.16 1343.73 1693.16C1343.73 1698.92 1341.57 1703.88 1337.25 1708.04C1333.09 1712.04 1328.05 1714.04 1322.13 1714.04ZM1371.25 1793.96H1415.17V1736.36C1415.17 1715.88 1418.37 1699.8 1424.77 1688.12C1431.17 1676.28 1439.25 1667.8 1449.01 1662.68C1458.77 1657.56 1468.77 1655 1479.01 1655C1491.17 1655 1500.61 1656.76 1507.33 1660.28C1514.05 1663.64 1517.97 1665.8 1519.09 1666.76L1507.33 1688.6C1506.37 1687.64 1503.57 1685.88 1498.93 1683.32C1494.45 1680.76 1488.13 1679.48 1479.97 1679.48C1473.89 1679.48 1467.97 1681 1462.21 1684.04C1456.45 1686.92 1451.65 1692.68 1447.81 1701.32C1443.97 1709.96 1442.05 1722.92 1442.05 1740.2V1793.96H1501.57V1818.44H1442.05V1991H1415.17V1818.44H1371.25V1793.96ZM1553.86 1896.92C1553.86 1919.96 1558.9 1938.28 1568.98 1951.88C1579.22 1965.32 1594.58 1972.04 1615.06 1972.04C1635.7 1972.04 1651.06 1965.32 1661.14 1951.88C1671.22 1938.28 1676.26 1919.96 1676.26 1896.92V1793.96H1703.62V1901.72C1703.62 1920.12 1700.18 1936.52 1693.3 1950.92C1686.42 1965.16 1676.42 1976.36 1663.3 1984.52C1650.18 1992.68 1634.1 1996.76 1615.06 1996.76C1596.18 1996.76 1580.18 1992.68 1567.06 1984.52C1553.94 1976.36 1543.94 1965.16 1537.06 1950.92C1530.18 1936.52 1526.74 1920.12 1526.74 1901.72V1793.96H1553.86V1896.92ZM1781.43 1991H1753.59V1660.76H1781.43V1991Z" fill="black"/>
<defs>
<linearGradient id="paint0_linear_199_2" x1="1408.53" y1="109.172" x2="1484.45" y2="1354.15" gradientUnits="userSpaceOnUse">
<stop stop-color="#BF90FC"/>
<stop offset="1" stop-color="#FFB2B8"/>
</linearGradient>
<linearGradient id="paint1_linear_199_2" x1="1408.53" y1="109.172" x2="1484.45" y2="1354.15" gradientUnits="userSpaceOnUse">
<stop stop-color="#BF90FC"/>
<stop offset="1" stop-color="#FFB2B8"/>
</linearGradient>
<linearGradient id="paint2_linear_199_2" x1="1408.53" y1="109.172" x2="1484.45" y2="1354.15" gradientUnits="userSpaceOnUse">
<stop stop-color="#BF90FC"/>
<stop offset="1" stop-color="#FFB2B8"/>
</linearGradient>
<linearGradient id="paint3_linear_199_2" x1="1408.53" y1="109.172" x2="1484.45" y2="1354.15" gradientUnits="userSpaceOnUse">
<stop stop-color="#BF90FC"/>
<stop offset="1" stop-color="#FFB2B8"/>
</linearGradient>
<linearGradient id="paint4_linear_199_2" x1="1408.53" y1="109.172" x2="1484.45" y2="1354.15" gradientUnits="userSpaceOnUse">
<stop stop-color="#BF90FC"/>
<stop offset="1" stop-color="#FFB2B8"/>
</linearGradient>
<linearGradient id="paint5_linear_199_2" x1="1408.53" y1="109.172" x2="1484.45" y2="1354.15" gradientUnits="userSpaceOnUse">
<stop stop-color="#BF90FC"/>
<stop offset="1" stop-color="#FFB2B8"/>
</linearGradient>
<linearGradient id="paint6_linear_199_2" x1="1408.53" y1="109.172" x2="1484.45" y2="1354.15" gradientUnits="userSpaceOnUse">
<stop stop-color="#BF90FC"/>
<stop offset="1" stop-color="#FFB2B8"/>
</linearGradient>
<linearGradient id="paint7_linear_199_2" x1="1408.53" y1="109.172" x2="1484.45" y2="1354.15" gradientUnits="userSpaceOnUse">
<stop stop-color="#BF90FC"/>
<stop offset="1" stop-color="#FFB2B8"/>
</linearGradient>
<linearGradient id="paint8_linear_199_2" x1="1408.53" y1="109.172" x2="1484.45" y2="1354.15" gradientUnits="userSpaceOnUse">
<stop stop-color="#BF90FC"/>
<stop offset="1" stop-color="#FFB2B8"/>
</linearGradient>
<linearGradient id="paint9_linear_199_2" x1="1408.53" y1="109.172" x2="1484.45" y2="1354.15" gradientUnits="userSpaceOnUse">
<stop stop-color="#BF90FC"/>
<stop offset="1" stop-color="#FFB2B8"/>
</linearGradient>
<linearGradient id="paint10_linear_199_2" x1="1408.53" y1="109.172" x2="1484.45" y2="1354.15" gradientUnits="userSpaceOnUse">
<stop stop-color="#BF90FC"/>
<stop offset="1" stop-color="#FFB2B8"/>
</linearGradient>
<linearGradient id="paint11_linear_199_2" x1="1408.53" y1="109.172" x2="1484.45" y2="1354.15" gradientUnits="userSpaceOnUse">
<stop stop-color="#BF90FC"/>
<stop offset="1" stop-color="#FFB2B8"/>
</linearGradient>
<linearGradient id="paint12_linear_199_2" x1="1408.53" y1="109.172" x2="1484.45" y2="1354.15" gradientUnits="userSpaceOnUse">
<stop stop-color="#BF90FC"/>
<stop offset="1" stop-color="#FFB2B8"/>
</linearGradient>
<linearGradient id="paint13_linear_199_2" x1="1408.53" y1="109.172" x2="1484.45" y2="1354.15" gradientUnits="userSpaceOnUse">
<stop stop-color="#BF90FC"/>
<stop offset="1" stop-color="#FFB2B8"/>
</linearGradient>
</defs>
</svg>
